HIERARCHY
ROOT mixamorig:Hips
{
	OFFSET 0.000000 201.639420 0.000000
	CHANNELS 6 Xposition Yposition Zposition Xrotation Yrotation Zrotation
	JOINT mixamorig:Spine
	{
		OFFSET 0.006200 19.524994 -2.481800
		CHANNELS 3 Xrotation Yrotation Zrotation
		JOINT mixamorig:Spine1
		{
			OFFSET -0.000900 22.835007 -2.825400
			CHANNELS 3 Xrotation Yrotation Zrotation
			JOINT mixamorig:Spine2
			{
				OFFSET -0.020600 26.552490 -3.193300
				CHANNELS 3 Xrotation Yrotation Zrotation
				JOINT mixamorig:Neck
				{
					OFFSET -0.060000 30.701813 1.352200
					CHANNELS 3 Xrotation Yrotation Zrotation
					JOINT mixamorig:Head
					{
						OFFSET -0.087200 22.547607 3.670900
						CHANNELS 3 Xrotation Yrotation Zrotation
						JOINT mixamorig:HeadTop_End
						{
							OFFSET -0.830600 40.355194 7.893500
							CHANNELS 3 Xrotation Yrotation Zrotation
							End Site
							{
								OFFSET 0.000000 30.592346 0.000000
							}
						}
						JOINT mixamorig:RightEye
						{
							OFFSET -6.302100 18.118591 16.197100
							CHANNELS 3 Xrotation Yrotation Zrotation
							End Site
							{
								OFFSET 0.000000 30.592346 0.000000
							}
						}
						JOINT mixamorig:LeftEye
						{
							OFFSET 6.741500 18.382690 16.401899
							CHANNELS 3 Xrotation Yrotation Zrotation
							End Site
							{
								OFFSET 0.000000 30.592346 0.000000
							}
						}
					}
				}
				JOINT mixamorig:LeftShoulder
				{
					OFFSET 11.924900 18.230499 1.425400
					CHANNELS 3 Xrotation Yrotation Zrotation
					JOINT mixamorig:LeftArm
					{
						OFFSET 25.435989 -0.697632 -5.229300
						CHANNELS 3 Xrotation Yrotation Zrotation
						JOINT mixamorig:LeftForeArm
						{
							OFFSET 54.684776 0.000000 0.000000
							CHANNELS 3 Xrotation Yrotation Zrotation
							JOINT mixamorig:LeftHand
							{
								OFFSET 55.098175 0.000000 0.000000
								CHANNELS 3 Xrotation Yrotation Zrotation
								JOINT mixamorig:LeftHandMiddle1
								{
									OFFSET 23.369751 0.000000 0.000000
									CHANNELS 3 Xrotation Yrotation Zrotation
									JOINT mixamorig:LeftHandMiddle2
									{
										OFFSET 6.378677 0.000000 0.000000
										CHANNELS 3 Xrotation Yrotation Zrotation
										JOINT mixamorig:LeftHandMiddle3
										{
											OFFSET 6.148331 0.000000 0.000000
											CHANNELS 3 Xrotation Yrotation Zrotation
											JOINT mixamorig:LeftHandMiddle4
											{
												OFFSET 6.582504 0.000000 0.000000
												CHANNELS 3 Xrotation Yrotation Zrotation
												End Site
												{
													OFFSET -1.168900 6.395691 1.028606
												}
											}
										}
									}
								}
								JOINT mixamorig:LeftHandThumb1
								{
									OFFSET 7.235672 -3.848206 5.434273
									CHANNELS 3 Xrotation Yrotation Zrotation
									JOINT mixamorig:LeftHandThumb2
									{
										OFFSET 6.568451 -3.792297 3.792300
										CHANNELS 3 Xrotation Yrotation Zrotation
										JOINT mixamorig:LeftHandThumb3
										{
											OFFSET 6.063080 -3.500519 3.500518
											CHANNELS 3 Xrotation Yrotation Zrotation
											JOINT mixamorig:LeftHandThumb4
											{
												OFFSET 4.793182 -2.767334 2.767349
												CHANNELS 3 Xrotation Yrotation Zrotation
												End Site
												{
													OFFSET 0.101639 6.054260 1.275483
												}
											}
										}
									}
								}
								JOINT mixamorig:LeftHandIndex1
								{
									OFFSET 23.101074 -0.309540 4.992809
									CHANNELS 3 Xrotation Yrotation Zrotation
									JOINT mixamorig:LeftHandIndex2
									{
										OFFSET 6.226883 0.000000 0.000000
										CHANNELS 3 Xrotation Yrotation Zrotation
										JOINT mixamorig:LeftHandIndex3
										{
											OFFSET 6.094330 0.000000 0.000000
											CHANNELS 3 Xrotation Yrotation Zrotation
											JOINT mixamorig:LeftHandIndex4
											{
												OFFSET 5.482605 0.000000 0.000000
												CHANNELS 3 Xrotation Yrotation Zrotation
												End Site
												{
													OFFSET -1.427902 5.233032 0.797164
												}
											}
										}
									}
								}
								JOINT mixamorig:LeftHandRing1
								{
									OFFSET 22.299240 0.021149 -3.964172
									CHANNELS 3 Xrotation Yrotation Zrotation
									JOINT mixamorig:LeftHandRing2
									{
										OFFSET 6.321869 0.000000 0.000000
										CHANNELS 3 Xrotation Yrotation Zrotation
										JOINT mixamorig:LeftHandRing3
										{
											OFFSET 5.899796 0.000000 0.000000
											CHANNELS 3 Xrotation Yrotation Zrotation
											JOINT mixamorig:LeftHandRing4
											{
												OFFSET 6.517899 0.000000 0.000000
												CHANNELS 3 Xrotation Yrotation Zrotation
												End Site
												{
													OFFSET -1.637299 6.232208 0.980890
												}
											}
										}
									}
								}
								JOINT mixamorig:LeftHandPinky1
								{
									OFFSET 20.463791 -0.302338 -8.562233
									CHANNELS 3 Xrotation Yrotation Zrotation
									JOINT mixamorig:LeftHandPinky2
									{
										OFFSET 6.908646 0.000000 0.000000
										CHANNELS 3 Xrotation Yrotation Zrotation
										JOINT mixamorig:LeftHandPinky3
										{
											OFFSET 4.622849 0.000000 0.000000
											CHANNELS 3 Xrotation Yrotation Zrotation
											JOINT mixamorig:LeftHandPinky4
											{
												OFFSET 5.216080 0.000000 0.000000
												CHANNELS 3 Xrotation Yrotation Zrotation
												End Site
												{
													OFFSET -0.606308 5.116241 0.814926
												}
											}
										}
									}
								}
							}
						}
					}
				}
				JOINT mixamorig:RightShoulder
				{
					OFFSET -12.001300 18.284088 1.348900
					CHANNELS 3 Xrotation Yrotation Zrotation
					JOINT mixamorig:RightArm
					{
						OFFSET -25.308500 -0.751312 -5.164599
						CHANNELS 3 Xrotation Yrotation Zrotation
						JOINT mixamorig:RightForeArm
						{
							OFFSET -54.684429 0.000000 0.000000
							CHANNELS 3 Xrotation Yrotation Zrotation
							JOINT mixamorig:RightHand
							{
								OFFSET -55.150291 0.000000 0.000000
								CHANNELS 3 Xrotation Yrotation Zrotation
								JOINT mixamorig:RightHandMiddle1
								{
									OFFSET -23.317566 0.000000 0.000000
									CHANNELS 3 Xrotation Yrotation Zrotation
									JOINT mixamorig:RightHandMiddle2
									{
										OFFSET -6.378403 0.000000 0.000000
										CHANNELS 3 Xrotation Yrotation Zrotation
										JOINT mixamorig:RightHandMiddle3
										{
											OFFSET -6.148193 0.000000 0.000000
											CHANNELS 3 Xrotation Yrotation Zrotation
											JOINT mixamorig:RightHandMiddle4
											{
												OFFSET -6.583389 0.000000 0.000000
												CHANNELS 3 Xrotation Yrotation Zrotation
												End Site
												{
													OFFSET 1.171692 6.395905 1.029786
												}
											}
										}
									}
								}
								JOINT mixamorig:RightHandThumb1
								{
									OFFSET -7.190521 -3.860474 5.435846
									CHANNELS 3 Xrotation Yrotation Zrotation
									JOINT mixamorig:RightHandThumb2
									{
										OFFSET -6.567429 -3.791718 3.791708
										CHANNELS 3 Xrotation Yrotation Zrotation
										JOINT mixamorig:RightHandThumb3
										{
											OFFSET -6.062469 -3.500153 3.500166
											CHANNELS 3 Xrotation Yrotation Zrotation
											JOINT mixamorig:RightHandThumb4
											{
												OFFSET -4.792618 -2.767029 2.767022
												CHANNELS 3 Xrotation Yrotation Zrotation
												End Site
												{
													OFFSET -0.100327 6.053253 1.276754
												}
											}
										}
									}
								}
								JOINT mixamorig:RightHandIndex1
								{
									OFFSET -23.048981 -0.310791 4.992554
									CHANNELS 3 Xrotation Yrotation Zrotation
									JOINT mixamorig:RightHandIndex2
									{
										OFFSET -6.227539 0.000000 0.000000
										CHANNELS 3 Xrotation Yrotation Zrotation
										JOINT mixamorig:RightHandIndex3
										{
											OFFSET -6.095047 0.000000 0.000000
											CHANNELS 3 Xrotation Yrotation Zrotation
											JOINT mixamorig:RightHandIndex4
											{
												OFFSET -5.484772 0.000000 0.000000
												CHANNELS 3 Xrotation Yrotation Zrotation
												End Site
												{
													OFFSET 1.420593 5.237305 0.797056
												}
											}
										}
									}
								}
								JOINT mixamorig:RightHandRing1
								{
									OFFSET -22.246323 0.020569 -3.963762
									CHANNELS 3 Xrotation Yrotation Zrotation
									JOINT mixamorig:RightHandRing2
									{
										OFFSET -6.322128 0.000000 0.000000
										CHANNELS 3 Xrotation Yrotation Zrotation
										JOINT mixamorig:RightHandRing3
										{
											OFFSET -5.900024 0.000000 0.000000
											CHANNELS 3 Xrotation Yrotation Zrotation
											JOINT mixamorig:RightHandRing4
											{
												OFFSET -6.518356 0.000000 0.000000
												CHANNELS 3 Xrotation Yrotation Zrotation
												End Site
												{
													OFFSET 1.636398 6.232697 0.982186
												}
											}
										}
									}
								}
								JOINT mixamorig:RightHandPinky1
								{
									OFFSET -20.411011 -0.303314 -8.561701
									CHANNELS 3 Xrotation Yrotation Zrotation
									JOINT mixamorig:RightHandPinky2
									{
										OFFSET -6.907349 0.000000 0.000000
										CHANNELS 3 Xrotation Yrotation Zrotation
										JOINT mixamorig:RightHandPinky3
										{
											OFFSET -4.623840 0.000000 0.000000
											CHANNELS 3 Xrotation Yrotation Zrotation
											JOINT mixamorig:RightHandPinky4
											{
												OFFSET -5.218353 0.000000 0.000000
												CHANNELS 3 Xrotation Yrotation Zrotation
												End Site
												{
													OFFSET 0.602097 5.118835 0.816273
												}
											}
										}
									}
								}
							}
						}
					}
				}
			}
		}
	}
	JOINT mixamorig:LeftUpLeg
	{
		OFFSET 18.168400 -13.561905 -0.039000
		CHANNELS 3 Xrotation Yrotation Zrotation
		JOINT mixamorig:LeftLeg
		{
			OFFSET 0.577358 -80.825211 -3.695000
			CHANNELS 3 Xrotation Yrotation Zrotation
			JOINT mixamorig:LeftFoot
			{
				OFFSET -0.577356 -83.370262 -6.520700
				CHANNELS 3 Xrotation Yrotation Zrotation
				JOINT mixamorig:LeftToeBase
				{
					OFFSET 0.750401 -20.798306 25.135401
					CHANNELS 3 Xrotation Yrotation Zrotation
					JOINT mixamorig:LeftToe_End
					{
						OFFSET -0.000500 0.001200 19.917799
						CHANNELS 3 Xrotation Yrotation Zrotation
						End Site
						{
							OFFSET 0.000000 19.917805 0.000000
						}
					}
				}
			}
		}
	}
	JOINT mixamorig:RightUpLeg
	{
		OFFSET -18.162500 -13.585098 -0.041000
		CHANNELS 3 Xrotation Yrotation Zrotation
		JOINT mixamorig:RightLeg
		{
			OFFSET -0.595024 -80.945297 -3.631900
			CHANNELS 3 Xrotation Yrotation Zrotation
			JOINT mixamorig:RightFoot
			{
				OFFSET 0.595024 -83.218193 -6.561200
				CHANNELS 3 Xrotation Yrotation Zrotation
				JOINT mixamorig:RightToeBase
				{
					OFFSET -0.753601 -20.807106 25.115000
					CHANNELS 3 Xrotation Yrotation Zrotation
					JOINT mixamorig:RightToe_End
					{
						OFFSET 0.000299 0.001700 19.918200
						CHANNELS 3 Xrotation Yrotation Zrotation
						End Site
						{
							OFFSET 0.000000 19.918203 0.000000
						}
					}
				}
			}
		}
	}
}
MOTION
Frames: 4
Frame Time: 0.033333
-0.059258 187.220230 2.097496 17.429787 -3.297611 0.069241 14.913762 -1.554638 0.406685 5.352008 -0.845703 -1.559632 5.141116 -0.428914 -0.173901 -8.304031 0.952451 1.844257 -26.443777 5.054365 0.649115 0.000000 0.000000 -0.000000 0.000000 0.000000 -0.000000 0.000000 0.000000 -0.000000 -18.191362 -16.683748 -4.144069 -14.299584 5.321657 -58.617298 0.000013 -50.169648 -0.000001 13.748587 -26.697326 34.896977 0.494828 4.564852 -22.398017 0.931135 3.170799 -32.723662 0.559044 2.499449 -25.211581 0.000002 -0.000001 -0.000001 11.187886 5.997112 -10.405206 5.363079 8.351976 0.904194 -5.744281 10.814878 15.940847 -0.000001 0.000001 0.000001 0.153507 -1.751665 -23.178189 0.809101 2.972614 -30.446518 0.886297 3.100010 -31.903878 0.000000 -0.000005 -0.000002 0.700935 5.019822 -28.509041 0.453625 2.262276 -22.674509 1.672873 4.099664 -44.381330 -0.000001 0.000000 -0.000001 0.465087 8.292841 -13.856674 0.624497 2.633833 -26.673000 2.026004 4.430914 -49.126607 0.000001 0.000003 0.000002 -23.769970 22.742588 4.874672 -0.233476 -15.047897 62.639658 0.000002 53.262744 0.000000 -1.218867 18.916624 -19.344629 0.187452 -3.413290 14.033689 0.448853 -1.996611 25.337251 0.480597 -2.062286 26.233696 0.000000 0.000000 0.000004 -1.231679 9.922385 5.836025 6.896119 -18.922477 -2.478623 -4.452448 -14.082260 -16.510193 0.000001 -0.000003 -0.000002 0.710416 3.726561 13.785585 0.253610 -1.517367 18.976128 0.289159 -1.617016 20.275712 -0.000002 -0.000001 0.000003 2.581786 -11.039344 17.202958 1.378478 -3.309280 45.218663 0.423391 -1.941932 24.596228 -0.000004 -0.000003 -0.000002 2.630073 -23.282660 23.282127 0.574906 -2.243404 28.743850 1.002131 -2.888125 38.265366 -0.000003 0.000001 0.000000 -42.954872 1.264953 18.499333 32.896780 -2.023333 2.891916 -7.304765 -5.730776 -17.567344 -5.308813 0.000001 -0.000004 0.000000 -0.000000 -0.000000 -43.290869 -2.206994 -10.958656 35.047480 -4.559459 -8.541318 -6.834895 -0.645270 18.939223 -3.267377 -0.000008 0.000001 -0.000000 -0.000000 -0.000000 
1.250710 187.459457 2.095699 17.408264 -3.540708 -0.227440 14.989936 -1.487895 0.359914 5.352564 -0.827506 -1.529180 5.148592 -0.408674 -0.145659 -8.268639 0.939739 1.903251 -26.433862 5.119837 0.819328 0.000000 0.000000 0.000000 0.000000 0.000000 0.000000 0.000000 0.000000 0.000000 -18.188963 -16.688184 -4.135279 -14.611586 5.161862 -58.688797 0.000022 -50.251034 0.000018 13.611902 -26.745684 34.985629 0.695261 5.065067 -21.747073 0.891743 3.108736 -32.004357 0.559043 2.499438 -25.211690 0.000001 0.000002 0.000001 10.836204 6.136583 -9.892800 5.232053 8.391190 1.126828 -5.744292 10.814886 15.940849 0.000001 -0.000002 0.000001 0.493685 -1.291349 -22.501532 0.745022 2.860943 -29.187208 0.886847 3.100862 -31.913594 -0.000000 -0.000002 -0.000002 0.955143 5.495450 -27.864539 0.405671 2.143978 -21.427304 1.672877 4.099665 -44.381333 0.000001 0.000002 -0.000002 0.621652 8.827186 -13.211655 0.568199 2.518793 -25.420777 2.026002 4.430926 -49.126583 0.000000 0.000000 0.000000 -23.813728 22.708282 4.861463 -0.121656 -14.792836 62.951183 -0.000001 53.180901 0.000001 -0.934515 18.946188 -19.649040 0.166672 -3.326766 12.930967 0.403885 -1.898775 24.014166 0.460443 -2.020901 25.668020 -0.000001 0.000001 -0.000000 -1.231316 9.917866 5.835505 6.951082 -19.387903 -2.514692 -4.581258 -12.915502 -16.272852 -0.000002 0.000002 0.000001 0.737504 3.818386 12.682873 0.219767 -1.415180 17.653713 0.273418 -1.573748 19.710314 0.000003 -0.000003 -0.000000 2.419241 -11.025503 16.077840 1.302817 -3.232561 43.892783 0.404418 -1.899993 24.030641 -0.000004 -0.000002 -0.000000 2.240125 -23.221485 22.083542 0.524198 -2.148418 27.420278 0.973774 -2.851840 37.699000 -0.000001 -0.000002 -0.000003 -43.196995 1.250528 18.524960 33.470577 -1.902620 2.756756 -7.576412 -5.772580 -17.072346 -5.308746 0.000002 -0.000003 -0.000000 0.000000 0.000000 -42.170985 -2.503214 -10.891012 32.920672 -4.423902 -8.674373 -6.536121 -0.671313 19.275620 -2.589825 0.000001 0.000002 -0.000000 0.000001 -0.000000 
2.299539 187.704758 2.030243 17.436066 -3.990903 -0.593912 15.049956 -1.269202 0.306060 5.353108 -0.766486 -1.490207 5.156144 -0.348943 -0.107881 -8.252046 0.927426 1.955400 -26.493278 5.143571 1.009649 -0.000000 -0.000000 -0.000000 -0.000000 -0.000000 -0.000000 -0.000000 -0.000000 -0.000000 -18.189612 -16.648089 -4.146361 -14.967296 4.889224 -58.724860 0.000002 -49.969688 0.000008 13.492259 -26.820420 35.021102 0.890970 5.589164 -21.066194 0.853427 3.046628 -31.290603 0.559039 2.499440 -25.211548 0.000003 0.000006 0.000003 10.461746 6.281672 -9.350442 5.090981 8.433108 1.369239 -5.744291 10.814882 15.940845 0.000000 -0.000001 -0.000001 0.830777 -0.803537 -21.797729 0.680777 2.742880 -27.872887 0.887385 3.101766 -31.923795 -0.000002 0.000003 0.000005 1.207323 5.995258 -27.190749 0.358400 2.019430 -20.125578 1.672877 4.099669 -44.381333 -0.000001 -0.000001 0.000001 0.767562 9.386580 -12.535482 0.512150 2.397400 -24.113853 2.025971 4.430916 -49.126371 -0.000004 -0.000003 0.000000 -23.825752 22.726594 4.778132 0.043046 -14.504351 63.273035 -0.000022 53.321712 0.000026 -0.902839 18.997242 -20.069696 0.144673 -3.226119 11.665356 0.357625 -1.791408 22.577730 0.439955 -1.977731 25.080892 -0.000002 -0.000005 -0.000001 -1.230941 9.905002 5.834511 7.012087 -19.905835 -2.554423 -4.723396 -11.672124 -16.018018 0.000001 -0.000000 -0.000003 0.770519 3.924067 11.416948 0.185705 -1.303354 16.217948 0.257521 -1.528718 19.123437 -0.000000 0.000003 -0.000000 2.237911 -11.026740 14.785591 1.222710 -3.147321 42.453406 0.385186 -1.856263 23.443572 -0.000003 0.000002 0.000001 1.800023 -23.140005 20.709870 0.471624 -2.044002 25.983354 0.944723 -2.813895 37.111105 -0.000001 0.000000 0.000000 -43.355770 1.106855 18.826382 33.890890 -1.617599 2.501766 -7.772661 -5.805089 -16.673815 -5.308982 0.000001 0.000005 -0.000000 -0.000000 -0.000000 -42.508126 -2.614393 -10.472037 32.721319 -3.956877 -9.231622 -4.482010 -0.407744 19.721085 -4.439577 0.000002 0.000002 -0.000000 -0.000001 -0.000000 
3.146873 187.906189 1.878593 17.531009 -4.618345 -1.033520 15.082608 -0.968354 0.289816 5.349670 -0.683710 -1.444181 5.155332 -0.268968 -0.062624 -8.253163 0.917459 2.007240 -26.616125 5.170650 1.193110 0.000001 -0.000000 0.000000 0.000001 -0.000000 0.000000 0.000001 -0.000000 0.000000 -18.190138 -16.577219 -4.164030 -15.306548 4.684618 -58.626621 0.000007 -49.477023 0.000005 13.441852 -26.866459 34.858810 1.078113 6.131848 -20.354100 0.815485 2.983421 -30.569478 0.559034 2.499416 -25.211244 -0.000000 -0.000001 0.000002 10.069708 6.428992 -8.785195 4.942374 8.476537 1.626474 -5.744287 10.814882 15.940849 0.000002 -0.000001 -0.000001 1.160701 -0.293165 -21.066318 0.616963 2.618844 -26.509054 0.887956 3.102660 -31.934300 -0.000000 -0.000003 -0.000002 1.453173 6.514406 -26.486350 0.312321 1.889040 -18.774669 1.672871 4.099667 -44.381333 -0.000001 -0.000000 -0.000001 0.900759 9.964651 -11.826625 0.456906 2.270104 -22.757601 2.026011 4.430915 -49.126699 -0.000001 0.000001 0.000001 -23.820455 22.742076 4.659062 0.142880 -14.173765 63.572334 -0.000001 53.703872 -0.000001 -0.856578 19.040464 -20.416212 0.123717 -3.118390 10.346674 0.312953 -1.680060 21.103486 0.419678 -1.933812 24.486295 -0.000003 -0.000000 -0.000002 -1.229983 9.889774 5.832955 7.074917 -20.441107 -2.594994 -4.873768 -10.402942 -15.755605 -0.000001 -0.000003 -0.000003 0.806897 4.035700 10.097537 0.153685 -1.187728 14.744340 0.241897 -1.482921 18.529152 0.000001 -0.000001 -0.000001 2.049148 -11.030156 13.438518 1.142770 -3.057753 40.976163 0.366142 -1.811785 22.849083 -0.000001 0.000001 -0.000003 1.338891 -23.045564 19.279257 0.420426 -1.935459 24.508618 0.915709 -2.775161 36.515793 0.000003 -0.000002 -0.000002 -43.539434 0.811038 19.368016 34.308433 -1.187810 2.146976 -7.952941 -5.820806 -16.358259 -5.309108 -0.000002 -0.000003 0.000000 -0.000000 0.000000 -43.846966 -2.599162 -9.798769 33.798197 -3.360089 -9.927255 -1.369755 0.066389 19.967607 -7.490576 -0.000005 -0.000002 -0.000000 -0.000001 -0.000000 
